<?xml version="1.0" encoding="UTF-8"?>
<svg width="18px" height="18px" viewBox="0 0 18 18" version="1.1" xmlns="http://www.w3.org/2000/svg" xmlns:xlink="http://www.w3.org/1999/xlink">
    <title>image_guanbi2</title>
    <g id="页面-1" stroke="none" stroke-width="1" fill="none" fill-rule="evenodd">
        <g id="Filter" transform="translate(-341, -60)">
            <g id="image_guanbi2" transform="translate(341, 60)">
                <path d="M9,0 C13.9706,0 18,4.02944 18,9 C18,13.9706 13.9706,18 9,18 C4.02944,18 0,13.9706 0,9 C0,4.02944 4.02944,0 9,0 Z" id="路径" fill="#000000" fill-rule="nonzero"></path>
                <path d="M11.7068474,5.69644653 L12.3255672,6.31516426 C12.5208372,6.51042617 12.5208372,6.82700904 12.3255672,7.02226895 L10.3359979,9.0109981 L12.3255672,11.0004672 C12.5208372,11.1957272 12.5208372,11.512317 12.3255672,11.7075769 L11.7068474,12.3262967 C11.5115875,12.5215566 11.1950076,12.5215566 10.9997477,12.3262967 L9.00999838,10.3369975 L7.02226907,12.3255667 C6.82700914,12.5208366 6.51042625,12.5208366 6.31516432,12.3255667 L5.69644654,11.7068469 C5.50118411,11.511587 5.50118411,11.1950072 5.69644654,10.9997472 L7.68399884,9.0109981 L5.69644654,7.02298895 C5.50118411,6.82772904 5.50118411,6.51114917 5.69644654,6.31588726 L6.31516432,5.69716953 C6.51042625,5.50190701 6.82700914,5.50190701 7.02226907,5.69716953 L9.00999838,7.68499867 L10.9997477,5.69644653 C11.1950076,5.50118411 11.5115875,5.50118411 11.7068474,5.69644653 Z" id="形状结合" fill="#FFFFFF"></path>
            </g>
        </g>
    </g>
</svg>