<?xml version="1.0" encoding="UTF-8"?>
<svg width="14px" height="14px" viewBox="0 0 14 14" version="1.1" xmlns="http://www.w3.org/2000/svg" xmlns:xlink="http://www.w3.org/1999/xlink">
    <title>image_guanbi</title>
    <g id="页面-1" stroke="none" stroke-width="1" fill="none" fill-rule="evenodd">
        <g id="Home-Page-Search" transform="translate(-284, -75)">
            <g id="image_guanbi" transform="translate(284, 75)">
                <path d="M7,0 C10.8660222,0 14,3.13400889 14,7 C14,10.8660222 10.8660222,14 7,14 C3.13400889,14 0,10.8660222 0,7 C0,3.13400889 3.13400889,0 7,0 Z" id="路径" fill="#B5B5B5" fill-rule="nonzero"></path>
                <path d="M9.10532579,4.43056952 L9.58655228,4.91179442 C9.7384289,5.0636648 9.7384289,5.30989592 9.58655228,5.46176474 L8.03910949,7.00855408 L9.58655228,8.55591896 C9.7384289,8.70778779 9.7384289,8.95402435 9.58655228,9.10589317 L9.10532579,9.58711963 C8.95345695,9.73898845 8.70722815,9.73898845 8.55535931,9.58711963 L7.00777652,8.03988696 L5.46176484,9.58655185 C5.309896,9.73842845 5.06366486,9.73842845 4.91179447,9.58655185 L4.43056953,9.10532539 C4.27869875,8.95345657 4.27869875,8.70722779 4.43056953,8.55535896 L5.97644355,7.00855408 L4.43056953,5.46232474 C4.27869875,5.31045592 4.27869875,5.06422714 4.43056953,4.91235676 L4.91179447,4.43113185 C5.06366486,4.27926101 5.309896,4.27926101 5.46176484,4.43113185 L7.00777652,5.97722119 L8.55535931,4.43056952 C8.70722815,4.27869875 8.95345695,4.27869875 9.10532579,4.43056952 Z" id="形状结合" fill="#FFFFFF"></path>
            </g>
        </g>
    </g>
</svg>